<svg xmlns="http://www.w3.org/2000/svg" viewBox="0 0 140 100" fill="currentColor" fill-rule="evenodd" aria-hidden="true">
  <path d="M70 8
           C 115 8, 130 30, 130 55
           C 130 80, 105 92, 70 92
           C 35 92, 10 80, 10 55
           C 10 30, 25 8, 70 8 Z
           M 48 38
           C 54 38, 56 46, 56 52
           C 56 58, 54 62, 48 62
           C 42 62, 40 58, 40 52
           C 40 46, 42 38, 48 38 Z
           M 92 38
           C 98 38, 100 46, 100 52
           C 100 58, 98 62, 92 62
           C 86 62, 84 58, 84 52
           C 84 46, 86 38, 92 38 Z"/>
</svg>
